
        <svg xmlns="http://www.w3.org/2000/svg" xmlns:xlink="http://www.w3.org/1999/xlink" version="1.1" width="3171.4285714285716" height="1371.4285714285713" viewBox="0 0 3171.4285714285716 1371.4285714285713">
			
			<g transform="scale(8.571428571428571) translate(10, 10)">
				<defs id="SvgjsDefs5979"><linearGradient id="SvgjsLinearGradient5988"><stop id="SvgjsStop5989" stop-color="#b88746" offset="0"/><stop id="SvgjsStop5990" stop-color="#fdf5a6" offset="1"/></linearGradient></defs><g id="SvgjsG5980" featureKey="rootContainer" transform="matrix(1,0,0,1,0,0)" fill="#fff"><rect y="0" height="1" width="1" opacity="0"/><rect y="135" width="350" height="5"/></g><g id="SvgjsG5981" featureKey="symbolFeature-0" transform="matrix(1.8903960423223642,0,0,1.8903960423223642,80.55126216403107,-55.32467828587164)" fill="#fff"><path xmlns="http://www.w3.org/2000/svg" d="M78.333,48.778c2.921,0,5.288,2.368,5.288,5.289c0,2.92-2.367,5.288-5.288,5.288s-5.288-2.368-5.288-5.288  C73.045,51.146,75.412,48.778,78.333,48.778 M78.333,47.649c-3.538,0-6.417,2.878-6.417,6.417c0,3.538,2.879,6.416,6.417,6.416  s6.417-2.878,6.417-6.416C84.75,50.528,81.871,47.649,78.333,47.649L78.333,47.649z"/><path xmlns="http://www.w3.org/2000/svg" d="M23.883,49.506c2.921,0,5.288,2.368,5.288,5.289s-2.367,5.288-5.288,5.288s-5.288-2.367-5.288-5.288  S20.962,49.506,23.883,49.506 M23.883,48.378c-3.538,0-6.417,2.878-6.417,6.417s2.879,6.416,6.417,6.416s6.416-2.878,6.416-6.416  S27.421,48.378,23.883,48.378L23.883,48.378z"/><path xmlns="http://www.w3.org/2000/svg" d="M16.849,58.768c0.274,0,0.536,0,0.791,0c-0.733-1.149-1.161-2.512-1.161-3.973c0-4.083,3.322-7.404,7.404-7.404  s7.403,3.321,7.403,7.404c0,1.461-0.427,2.823-1.16,3.973c0.203,0,0.415,0,0.638,0c6.957,0,34.127,0,40.238,0  c0.534,0,1.065-0.011,1.594-0.027c-1.041-1.275-1.666-2.903-1.666-4.674c0-4.083,3.32-7.404,7.403-7.404s7.403,3.321,7.403,7.404  c0,1.243-0.309,2.415-0.854,3.444c0.555-0.052,1.069-0.09,1.538-0.106c3.449-0.124,4.877-1.287,6.04-2.434  c0,0,1.552-0.176,1.67-0.293c0.117-0.118-0.33-1.528-0.307-1.739C93.848,52.727,95,51.322,95,50.97c0-0.371-1.387-0.664-2.656-0.688  l-0.094-2.351l1.692-3.831c-9.073-2.163-29.709-5.312-42.684-5.312c-11.329,0-19.55,4.148-25.097,6.311  c0,0-5.271-0.294-12.228,2.338c-6.957,2.633-8.039,4.466-8.932,5.406c0,0,0.518,1.834,1.692,2.773c0,0-1.599,2.163-1.692,2.445  C4.909,58.344,7.118,58.768,16.849,58.768z M28.154,45.487c5.782-2.503,10.507-4.266,17.805-4.936s11.476,0.124,12.674,0.3  c0,0,1.604,1.234,2.239,2.45c0,0-18.488,2.982-23.671,3.229C32.019,46.777,28.154,45.487,28.154,45.487z"/></g><g id="SvgjsG5982" featureKey="nameFeature-0" transform="matrix(0.7509390011348419,0,0,0.7509390011348419,-2.5070095144006803,67.31678968862693)" fill="#fff"><path d="M7.9876 40.04922 l-4.6491 0 l0 -22.591 l4.6491 0 l0 22.591 z M75.822 24.085 c0 2.0163 -0.65756 3.518 -1.6228 4.5964 c0.97048 1.0675 1.6226 2.5284 1.6226 4.4636 c0 5.046 -4.1128 6.8776 -6.8776 6.8776 l-24.997 0 l0 -22.815 l24.474 0 c2.975 0 7.4008 1.8316 7.4008 6.8776 z M70.244 34.9636 c0.43632 -0.24144 0.88232 -0.64636 0.88204 -1.8193 c0 -0.94328 -0.31938 -1.4539 -1.1389 -1.8214 c-0.745 -0.33402 -1.5585 -0.36098 -1.5661 -0.36098 l-19.779 0 l0 4.3645 l20.281 0 c0.2048 -0.0067968 0.81664 -0.083944 1.3207 -0.36277 z M70.244 25.904 c0.43632 -0.24144 0.88232 -0.64608 0.88232 -1.8193 c0 -0.94328 -0.31938 -1.4539 -1.1389 -1.8214 c-0.745 -0.33402 -1.5585 -0.36098 -1.5661 -0.36098 l-19.779 0 l0 4.3645 l20.281 0 c0.2048 -0.0067968 0.81664 -0.083944 1.3207 -0.36277 z M119.52600000000001 16.974 l0.083516 11.4 c0.034258 2.5224 -0.98356 4.9712 -2.8664 6.896 c-1.9964 2.0406 -5.8816 4.484 -13.054 4.5368 c-0.069572 0.0005078 -0.13941 0.00078124 -0.20848 0.00078124 c-5.4292 0 -9.9632 -1.5595 -12.785 -4.402 c-1.9399 -1.954 -2.9907 -4.4436 -2.9611 -7.0128 l-0.083984 -11.384 l4.6952 -0.034805 l0.084492 11.433 l-0.00027344 0.025625 c-0.019375 1.3246 0.53336 2.5915 1.598 3.664 c1.9603 1.9747 5.3772 3.043 9.6272 3.014 c4.3352 -0.031914 7.7912 -1.1416 9.732 -3.1251 c1.0183 -1.0408 1.5467 -2.2692 1.5279 -3.553 l0 -0.016758 l-0.08422 -11.407 z M163.95600000000002 16.89 l0.033516 2.3475 c0.036641 2.5258 -0.98144 4.978 -2.8667 6.9048 c-1.7693 1.8086 -5.0244 3.9321 -10.734 4.4284 l-0.073516 9.2524 l-4.6952 -0.032188 l0.072968 -9.1988 c-4.4648 -0.36281 -8.18 -1.8598 -10.617 -4.3144 c-1.9467 -1.9608 -2.9982 -4.4612 -2.9608 -7.0404 l0.034258 -2.3474 l4.6948 0.06828 l-0.034024 2.3474 c-0.019102 1.3246 0.53336 2.5918 1.5982 3.664 c1.9606 1.9747 5.3816 3.0474 9.6268 3.014 c4.3352 -0.031641 7.7912 -1.1413 9.7316 -3.1248 c1.0183 -1.0406 1.5464 -2.2692 1.5279 -3.553 l-0.034024 -2.3474 z M231.91800000000003 21.902 l-27.18 0.000039062 l0 4.3726 l18.128 0.0675 l-0.017266 4.6956 l-18.111 -0.0675 l0 4.3564 l27.18 0 l0 4.6954 l-31.875 0 l0 -22.815 l31.875 0 l0 4.6951 z M273.33500000000004 30.519199999999998 c1.947 1.9611 2.9986 4.4612 2.9607 7.0404 l-0.034258 2.3474 l-4.6948 -0.06828 l0.034258 -2.3474 c0.019375 -1.3246 -0.53308 -2.5915 -1.598 -3.664 c-1.9606 -1.9747 -5.3804 -3.0414 -9.6272 -3.014 c-4.3348 0.031641 -7.7912 1.1413 -9.7316 3.1248 c-1.0183 1.0408 -1.5467 2.2692 -1.5279 3.553 l0.034258 2.3474 l-4.6948 0.06828 l-0.034024 -2.3474 c-0.036875 -2.5256 0.9812 -4.978 2.8664 -6.9048 c0.71672 -0.73296 1.6791 -1.5172 2.948 -2.2245 c-1.0944 -0.604 -2.0646 -1.3233 -2.8878 -2.1525 c-1.947 -1.9611 -2.9985 -4.4612 -2.9609 -7.0404 l0.034258 -2.3474 l4.6948 0.06828 l-0.034258 2.3474 c-0.019375 1.3246 0.53308 2.5915 1.598 3.664 c1.9603 1.9747 5.3808 3.0474 9.6268 3.014 c4.3352 -0.031641 7.7912 -1.1413 9.7316 -3.1248 c1.0183 -1.0406 1.5464 -2.2692 1.5279 -3.553 l-0.034024 -2.3474 l4.6948 -0.06828 l0.034258 2.3474 c0.036641 2.5258 -0.98144 4.978 -2.8667 6.9048 c-0.717 0.73244 -1.6788 1.5166 -2.9472 2.2237 c1.0942 0.60424 2.0639 1.3239 2.8871 2.1531 z M317.641 19.299 c1.8355 1.8198 1.8204 4.452 1.7971 8.4364 c-0.0018359 0.29664 -0.0033984 0.604 -0.0046876 0.92236 c-0.0089064 2.3647 -0.015195 4.0732 -0.26344 5.514 c-0.21137 1.2284 -0.69948 2.9991 -2.4872 4.1908 c-2.2642 1.5093 -5.6464 1.5434 -13.056 1.6174 c-1.1572 0.011524 -2.2245 0.020156 -3.2091 0.020156 c-5.8708 0 -8.822 -0.31074 -10.708 -2.1844 c-1.964 -1.9514 -1.953 -4.8252 -1.9368 -9.1752 c0.018047 -4.8536 0.029024 -7.7832 2.4894 -9.602 c2.1227 -1.569 5.2056 -1.6103 11.96 -1.7011 l1.3479 -0.018555 c8.4176 -0.12031 11.902 -0.17027 14.071 1.9805 z M314.77500000000003 27.708 c0.013086 -2.2896 0.026914 -4.6576 -0.41728 -5.0976 c-0.55112 -0.54644 -3.0246 -0.67276 -6.3168 -0.67276 c-1.3547 0 -2.8484 0.021445 -4.4036 0.043672 l-1.3521 0.018555 c-4.8388 0.064884 -8.3348 0.11195 -9.25 0.78812 c-0.5776 0.42692 -0.587 2.9488 -0.59796 5.8692 c-0.010195 2.7118 -0.019883 5.2732 0.56032 5.8496 c0.9108 0.90508 5.8276 0.85564 10.583 0.80856 c5.4604 -0.054412 9.4056 -0.093908 10.516 -0.8342 c0.65372 -0.4358 0.66208 -2.7032 0.67384 -5.8416 c0.0010547 -0.32148 0.0028906 -0.632 0.0047264 -0.93176 z M331.91450000000003 16.95 l31.875 0 l0 4.6954 l-13.591 0 l0 18.186 l-4.6951 0 l0 -18.186 l-13.589 0 l0 -4.6954 z M380.9476 40.04922 l-4.6491 0 l0 -22.591 l4.6491 0 l0 22.591 z M424.963 35.3 l0.080272 4.6484 l-2.3241 0.04004 c-0.030078 0.0005078 -2.055 0.034258 -6.0152 0.034258 c-2.0063 0 -4.5092 -0.0089064 -7.5012 -0.034805 c-4.8264 -0.042108 -8.6856 -1.0842 -11.47 -3.0979 c-2.767 -2.0014 -4.2908 -4.9124 -4.2908 -8.1972 c0 -3.2826 1.5371 -6.2004 4.328 -8.2148 c2.766 -1.9969 6.7232 -3.0621 11.444 -3.0804 c8.882 -0.034258 13.438 0.00054688 13.483 0.00082032 l2.3244 0.01832 l-0.036641 4.6492 l-2.3244 -0.01832 c-0.044728 -0.0005078 -4.5784 -0.035039 -13.429 -0.00078124 c-6.8716 0.02668 -11.14 2.5732 -11.14 6.6464 c0 1.8039 0.79624 3.2946 2.3662 4.43 c1.9587 1.4167 4.9968 2.1832 8.7852 2.2161 c8.8288 0.077148 13.352 0.0017969 13.396 0.0010156 z M443.124 22.009 c-0.43632 0.24117 -0.88236 0.64612 -0.88236 1.8193 c0 0.91448 0.29558 1.4144 1.0547 1.7822 c0.76772 0.37195 1.6239 0.39914 1.6671 0.4002 l17.067 0.06672 c2.9656 0 7.3912 1.8316 7.3912 6.8776 s-4.1128 6.8776 -6.8776 6.8776 l-24.997 0 l0 -4.6954 l24.977 0 c0.2048 -0.0070704 0.81636 -0.08422 1.3204 -0.36305 c0.43656 -0.24144 0.88256 -0.64636 0.88256 -1.8193 c0 -0.91448 -0.29558 -1.4144 -1.0547 -1.7822 c-0.7654 -0.37094 -1.6208 -0.39894 -1.6686 -0.40024 l-17.056 -0.07586 l0 0.0091406 c-2.975 0 -7.4008 -1.8316 -7.4008 -6.8776 s4.1128 -6.8776 6.8776 -6.8776 l24.997 0 l0 4.6954 l-24.976 0 c-0.20457 0.0070704 -0.81668 0.08422 -1.321 0.36305 z"/></g><g id="SvgjsG5983" featureKey="sloganFeature-0" transform="matrix(0.41126159230435066,0,0,0.41126159230435066,19.313563012170853,113.52693637608749)" fill="#fff"><path d="M17.59 8.445 l0.016758 1.1737 c0.01832 1.2629 -0.49072 2.489 -1.4333 3.4524 c-0.88466 0.90428 -2.5122 1.966 -5.367 2.2142 l-0.036758 4.6262 l-2.3476 -0.016094 l0.036484 -4.5994 c-2.2324 -0.18141 -4.09 -0.92992 -5.3086 -2.1572 c-0.97334 -0.9804 -1.4991 -2.2306 -1.4804 -3.5202 l0.017129 -1.1737 l2.3474 0.03414 l-0.017012 1.1737 c-0.0095508 0.66232 0.26668 1.2959 0.79912 1.832 c0.98028 0.98734 2.6908 1.5237 4.8134 1.507 c2.1676 -0.01582 3.8956 -0.57064 4.8658 -1.5624 c0.50916 -0.5203 0.77322 -1.1346 0.76394 -1.7765 l-0.017012 -1.1737 z M47.437 9.649 c0.91776 0.9099 0.9102 2.226 0.89856 4.2182 c-0.00091796 0.14832 -0.0016992 0.302 -0.0023438 0.46118 c-0.0044532 1.1823 -0.0075976 2.0366 -0.13172 2.757 c-0.10568 0.6142 -0.34974 1.4995 -1.2436 2.0954 c-1.1321 0.75466 -2.8232 0.77168 -6.5282 0.8087 c-0.57862 0.0057618 -1.1122 0.010078 -1.6046 0.010078 c-2.9354 0 -4.411 -0.15537 -5.3538 -1.0922 c-0.98198 -0.9757 -0.97648 -2.4126 -0.96838 -4.5876 c0.0090234 -2.4268 0.014512 -3.8916 1.2447 -4.801 c1.0614 -0.7845 2.6028 -0.80516 5.9798 -0.85054 l0.67396 -0.0092774 c4.2088 -0.060156 5.9508 -0.085136 7.0354 0.99024 z M46.003 13.854199999999999 c0.006543 -1.1448 0.013457 -2.3288 -0.20864 -2.5488 c-0.27556 -0.27322 -1.5123 -0.33638 -3.1584 -0.33638 c-0.67736 0 -1.4242 0.010723 -2.2018 0.021836 l-0.67606 0.0092774 c-2.4194 0.032442 -4.1674 0.055976 -4.625 0.39406 c-0.2888 0.21346 -0.2935 1.4744 -0.29898 2.9346 c-0.0050976 1.3559 -0.0099414 2.6366 0.28016 2.9248 c0.4554 0.45254 2.9138 0.42782 5.2914 0.40428 c2.7302 -0.027206 4.7028 -0.046954 5.258 -0.4171 c0.32686 -0.2179 0.33104 -1.3516 0.33692 -2.9208 c0.00052734 -0.16074 0.0014453 -0.316 0.0023632 -0.46588 z M80.151 8.487 l0.041758 5.7 c0.017129 1.2612 -0.49178 2.4856 -1.4332 3.448 c-0.9982 1.0203 -2.9408 2.242 -6.5268 2.2684 c-0.034786 0.0002539 -0.069706 0.00039062 -0.10424 0.00039062 c-2.7146 0 -4.9816 -0.77976 -6.3926 -2.201 c-0.96994 -0.97702 -1.4953 -2.2218 -1.4805 -3.5064 l-0.041992 -5.6918 l2.3476 -0.017402 l0.042246 5.7166 l-0.00013672 0.012813 c-0.0096876 0.66232 0.26668 1.2957 0.799 1.832 c0.98014 0.98734 2.6886 1.5215 4.8136 1.507 c2.1676 -0.015957 3.8956 -0.57078 4.866 -1.5626 c0.50916 -0.5204 0.77336 -1.1346 0.76394 -1.7765 l0 -0.0083789 l-0.04211 -5.7036 z M110.413 17.557 l1.162 -0.017422 l0.034786 2.3242 l-1.1621 0.017402 c-0.18088 0.002754 -0.38542 0.0058984 -0.6087 0.0058984 c-1.614 0 -4.2026 -0.16008 -5.8378 -1.7712 c-0.72798 -0.71726 -1.1865 -1.629 -1.3698 -2.72 l-4.2054 0 l-0.016602 4.4896 l-2.3246 -0.0086328 l0.037402 -10.127 l0 -1.1635 l0.0043164 0 l0 -0.0043164 l1.1612 0.0043164 l10.951 0 c1.4728 0 3.6638 0.90678 3.6638 3.4048 c0 2.4982 -2.0362 3.405 -3.4048 3.405 l-3.4826 0 c0.12543 0.4252 0.32842 0.77924 0.61734 1.064 c1.1685 1.151 3.608 1.1146 4.7804 1.0969 z M98.4474 13.0714 l10.041 -0.000019531 c0.10148 -0.0035352 0.40426 -0.041718 0.6538 -0.17971 c0.21608 -0.11955 0.43686 -0.32006 0.43686 -0.90076 c0 -0.46692 -0.15799 -0.71972 -0.56382 -0.90166 c-0.36882 -0.16531 -0.77152 -0.17865 -0.77532 -0.17865 l-9.7922 0 l0 2.1608 z M165.147 10.9512 l-13.59 0.000019531 l0 2.1863 l9.0642 0.03375 l-0.0086328 2.3478 l-9.0556 -0.03375 l0 2.1782 l13.59 0 l0 2.3477 l-15.938 0 l0 -11.407 l15.938 0 l0 2.3476 z M195.496 15.259599999999999 c0.97348 0.98054 1.4993 2.2306 1.4803 3.5202 l-0.017129 1.1737 l-2.3474 -0.03414 l0.017129 -1.1737 c0.0096876 -0.66232 -0.26654 -1.2957 -0.79898 -1.832 c-0.98028 -0.98734 -2.6902 -1.5207 -4.8136 -1.507 c-2.1674 0.01582 -3.8956 0.57064 -4.8658 1.5624 c-0.50916 0.5204 -0.77336 1.1346 -0.76394 1.7765 l0.017129 1.1737 l-2.3474 0.03414 l-0.017012 -1.1737 c-0.018438 -1.2628 0.4906 -2.489 1.4332 -3.4524 c0.35836 -0.36648 0.83954 -0.7586 1.474 -1.1122 c-0.54722 -0.302 -1.0323 -0.66166 -1.4439 -1.0763 c-0.97348 -0.98054 -1.4993 -2.2306 -1.4804 -3.5202 l0.017129 -1.1737 l2.3474 0.03414 l-0.017129 1.1737 c-0.0096876 0.66232 0.26654 1.2957 0.79898 1.832 c0.98014 0.98734 2.6904 1.5237 4.8134 1.507 c2.1676 -0.01582 3.8956 -0.57064 4.8658 -1.5624 c0.50916 -0.5203 0.77322 -1.1346 0.76394 -1.7765 l-0.017012 -1.1737 l2.3474 -0.03414 l0.017129 1.1737 c0.01832 1.2629 -0.49072 2.489 -1.4333 3.4524 c-0.3585 0.36622 -0.83942 0.75832 -1.4736 1.1119 c0.5471 0.30212 1.0319 0.66194 1.4435 1.0765 z M227.289 9.649 c0.91776 0.9099 0.9102 2.226 0.89856 4.2182 c-0.00091796 0.14832 -0.0016992 0.302 -0.0023438 0.46118 c-0.0044532 1.1823 -0.0075976 2.0366 -0.13172 2.757 c-0.10568 0.6142 -0.34974 1.4995 -1.2436 2.0954 c-1.1321 0.75466 -2.8232 0.77168 -6.5282 0.8087 c-0.57862 0.0057618 -1.1122 0.010078 -1.6046 0.010078 c-2.9354 0 -4.411 -0.15537 -5.3538 -1.0922 c-0.98198 -0.9757 -0.97648 -2.4126 -0.96838 -4.5876 c0.0090234 -2.4268 0.014512 -3.8916 1.2447 -4.801 c1.0614 -0.7845 2.6028 -0.80516 5.9798 -0.85054 l0.67396 -0.0092774 c4.2088 -0.060156 5.9508 -0.085136 7.0354 0.99024 z M225.855 13.854199999999999 c0.006543 -1.1448 0.013457 -2.3288 -0.20864 -2.5488 c-0.27556 -0.27322 -1.5123 -0.33638 -3.1584 -0.33638 c-0.67736 0 -1.4242 0.010723 -2.2018 0.021836 l-0.67606 0.0092774 c-2.4194 0.032442 -4.1674 0.055976 -4.625 0.39406 c-0.2888 0.21346 -0.2935 1.4744 -0.29898 2.9346 c-0.0050976 1.3559 -0.0099414 2.6366 0.28016 2.9248 c0.4554 0.45254 2.9138 0.42782 5.2914 0.40428 c2.7302 -0.027206 4.7028 -0.046954 5.258 -0.4171 c0.32686 -0.2179 0.33104 -1.3516 0.33692 -2.9208 c0.00052734 -0.16074 0.0014453 -0.316 0.0023632 -0.46588 z M244.06519999999998 8.475 l15.938 0 l0 2.3477 l-6.7954 0 l0 9.0932 l-2.3476 0 l0 -9.0932 l-6.7946 0 l0 -2.3477 z M278.22180000000003 20.02461 l-2.3246 0 l0 -11.295 l2.3246 0 l0 11.295 z M309.87 17.65 l0.040136 2.3242 l-1.1621 0.02002 c-0.015039 0.0002539 -1.0275 0.017129 -3.0076 0.017129 c-1.0032 0 -2.2546 -0.0044532 -3.7506 -0.017402 c-2.4132 -0.021054 -4.3428 -0.54212 -5.7348 -1.549 c-1.3835 -1.0007 -2.1454 -2.4562 -2.1454 -4.0986 c0 -1.6413 0.76854 -3.1002 2.164 -4.1074 c1.383 -0.99846 3.3616 -1.531 5.7218 -1.5402 c4.441 -0.017129 6.719 0.00027344 6.7416 0.00041016 l1.1622 0.0091602 l-0.01832 2.3246 l-1.1622 -0.0091602 c-0.022364 -0.0002539 -2.2892 -0.01752 -6.7144 -0.00039062 c-3.4358 0.01334 -5.5702 1.2866 -5.5702 3.3232 c0 0.90194 0.39812 1.6473 1.1831 2.215 c0.97936 0.70836 2.4984 1.0916 4.3926 1.1081 c4.4144 0.038574 6.6758 0.00089844 6.698 0.00050782 z M329.1038 17.7804 l-1.0204 4.207 l-2.2814 -0.55336 l1.0204 -4.207 z M381.341 9.649 c0.91776 0.9099 0.9102 2.226 0.89856 4.2182 c-0.00091796 0.14832 -0.0016992 0.302 -0.0023438 0.46118 c-0.0044532 1.1823 -0.0075976 2.0366 -0.13172 2.757 c-0.10568 0.6142 -0.34974 1.4995 -1.2436 2.0954 c-1.1321 0.75466 -2.8232 0.77168 -6.5282 0.8087 c-0.57862 0.0057618 -1.1122 0.010078 -1.6046 0.010078 c-2.9354 0 -4.411 -0.15537 -5.3538 -1.0922 c-0.98198 -0.9757 -0.97648 -2.4126 -0.96838 -4.5876 c0.0090234 -2.4268 0.014512 -3.8916 1.2447 -4.801 c1.0614 -0.7845 2.6028 -0.80516 5.9798 -0.85054 l0.67396 -0.0092774 c4.2088 -0.060156 5.9508 -0.085136 7.0354 0.99024 z M379.907 13.854199999999999 c0.006543 -1.1448 0.013457 -2.3288 -0.20864 -2.5488 c-0.27556 -0.27322 -1.5123 -0.33638 -3.1584 -0.33638 c-0.67736 0 -1.4242 0.010723 -2.2018 0.021836 l-0.67606 0.0092774 c-2.4194 0.032442 -4.1674 0.055976 -4.625 0.39406 c-0.2888 0.21346 -0.2935 1.4744 -0.29898 2.9346 c-0.0050976 1.3559 -0.0099414 2.6366 0.28016 2.9248 c0.4554 0.45254 2.9138 0.42782 5.2914 0.40428 c2.7302 -0.027206 4.7028 -0.046954 5.258 -0.4171 c0.32686 -0.2179 0.33104 -1.3516 0.33692 -2.9208 c0.00052734 -0.16074 0.0014453 -0.316 0.0023632 -0.46588 z M414.05499999999995 8.487 l0.041758 5.7 c0.017129 1.2612 -0.49178 2.4856 -1.4332 3.448 c-0.9982 1.0203 -2.9408 2.242 -6.5268 2.2684 c-0.034786 0.0002539 -0.069706 0.00039062 -0.10424 0.00039062 c-2.7146 0 -4.9816 -0.77976 -6.3926 -2.201 c-0.96994 -0.97702 -1.4953 -2.2218 -1.4805 -3.5064 l-0.041992 -5.6918 l2.3476 -0.017402 l0.042246 5.7166 l-0.00013672 0.012813 c-0.0096876 0.66232 0.26668 1.2957 0.799 1.832 c0.98014 0.98734 2.6886 1.5215 4.8136 1.507 c2.1676 -0.015957 3.8956 -0.57078 4.866 -1.5626 c0.50916 -0.5204 0.77336 -1.1346 0.76394 -1.7765 l0 -0.0083789 l-0.04211 -5.7036 z M444.317 17.557 l1.162 -0.017422 l0.034786 2.3242 l-1.1621 0.017402 c-0.18088 0.002754 -0.38542 0.0058984 -0.6087 0.0058984 c-1.614 0 -4.2026 -0.16008 -5.8378 -1.7712 c-0.72798 -0.71726 -1.1865 -1.629 -1.3698 -2.72 l-4.2054 0 l-0.016602 4.4896 l-2.3246 -0.0086328 l0.037402 -10.127 l0 -1.1635 l0.0043164 0 l0 -0.0043164 l1.1612 0.0043164 l10.951 0 c1.4728 0 3.6638 0.90678 3.6638 3.4048 c0 2.4982 -2.0362 3.405 -3.4048 3.405 l-3.4826 0 c0.12543 0.4252 0.32842 0.77924 0.61734 1.064 c1.1685 1.151 3.608 1.1146 4.7804 1.0969 z M432.3514 13.0714 l10.041 -0.000019531 c0.10148 -0.0035352 0.40426 -0.041718 0.6538 -0.17971 c0.21608 -0.11955 0.43686 -0.32006 0.43686 -0.90076 c0 -0.46692 -0.15799 -0.71972 -0.56382 -0.90166 c-0.36882 -0.16531 -0.77152 -0.17865 -0.77532 -0.17865 l-9.7922 0 l0 2.1608 z M499.05099999999993 10.9512 l-13.59 0.000019531 l0 2.1863 l9.0642 0.03375 l-0.0086328 2.3478 l-9.0556 -0.03375 l0 2.1782 l13.59 0 l0 2.3477 l-15.938 0 l0 -11.407 l15.938 0 l0 2.3476 z M529.4 15.259599999999999 c0.97348 0.98054 1.4993 2.2306 1.4803 3.5202 l-0.017129 1.1737 l-2.3474 -0.03414 l0.017129 -1.1737 c0.0096876 -0.66232 -0.26654 -1.2957 -0.79898 -1.832 c-0.98028 -0.98734 -2.6902 -1.5207 -4.8136 -1.507 c-2.1674 0.01582 -3.8956 0.57064 -4.8658 1.5624 c-0.50916 0.5204 -0.77336 1.1346 -0.76394 1.7765 l0.017129 1.1737 l-2.3474 0.03414 l-0.017012 -1.1737 c-0.018438 -1.2628 0.4906 -2.489 1.4332 -3.4524 c0.35836 -0.36648 0.83954 -0.7586 1.474 -1.1122 c-0.54722 -0.302 -1.0323 -0.66166 -1.4439 -1.0763 c-0.97348 -0.98054 -1.4993 -2.2306 -1.4804 -3.5202 l0.017129 -1.1737 l2.3474 0.03414 l-0.017129 1.1737 c-0.0096876 0.66232 0.26654 1.2957 0.79898 1.832 c0.98014 0.98734 2.6904 1.5237 4.8134 1.507 c2.1676 -0.01582 3.8956 -0.57064 4.8658 -1.5624 c0.50916 -0.5203 0.77322 -1.1346 0.76394 -1.7765 l-0.017012 -1.1737 l2.3474 -0.03414 l0.017129 1.1737 c0.01832 1.2629 -0.49072 2.489 -1.4333 3.4524 c-0.3585 0.36622 -0.83942 0.75832 -1.4736 1.1119 c0.5471 0.30212 1.0319 0.66194 1.4435 1.0765 z M559.0319999999999 8.475 c1.4873 0 3.7 0.91594 3.7 3.4388 s-2.0564 3.4388 -3.4388 3.4388 l-10.172 0 l-0.016738 4.5342 l-2.3476 -0.0087696 l0.037794 -10.227 l0 -1.1757 l0.0043164 0 l0 -0.0043164 l1.1738 0.0043164 l11.059 0 z M559.944 12.823599999999999 c0.21816 -0.12072 0.4413 -0.32304 0.44118 -0.90952 c0 -0.47164 -0.15957 -0.72696 -0.56948 -0.91072 c-0.3725 -0.16701 -0.77926 -0.18049 -0.78304 -0.18049 l-9.8895 0 l0 2.1822 l10.141 0 c0.1024 -0.0035352 0.40818 -0.04211 0.66022 -0.18152 z M594.5469999999999 10.9512 l-13.59 0.000019531 l0 2.1863 l9.0642 0.03375 l-0.0086328 2.3478 l-9.0556 -0.03375 l0 2.1782 l13.59 0 l0 2.3477 l-15.938 0 l0 -11.407 l15.938 0 l0 2.3476 z M624.7489999999999 17.557 l1.162 -0.017422 l0.034786 2.3242 l-1.1621 0.017402 c-0.18088 0.002754 -0.38542 0.0058984 -0.6087 0.0058984 c-1.614 0 -4.2026 -0.16008 -5.8378 -1.7712 c-0.72798 -0.71726 -1.1865 -1.629 -1.3698 -2.72 l-4.2054 0 l-0.016602 4.4896 l-2.3246 -0.0086328 l0.037402 -10.127 l0 -1.1635 l0.0043164 0 l0 -0.0043164 l1.1612 0.0043164 l10.951 0 c1.4728 0 3.6638 0.90678 3.6638 3.4048 c0 2.4982 -2.0362 3.405 -3.4048 3.405 l-3.4826 0 c0.12543 0.4252 0.32842 0.77924 0.61734 1.064 c1.1685 1.151 3.608 1.1146 4.7804 1.0969 z M612.7833999999999 13.0714 l10.041 -0.000019531 c0.10148 -0.0035352 0.40426 -0.041718 0.6538 -0.17971 c0.21608 -0.11955 0.43686 -0.32006 0.43686 -0.90076 c0 -0.46692 -0.15799 -0.71972 -0.56382 -0.90166 c-0.36882 -0.16531 -0.77152 -0.17865 -0.77532 -0.17865 l-9.7922 0 l0 2.1608 z M642.1332 8.475 l15.938 0 l0 2.3477 l-6.7954 0 l0 9.0932 l-2.3476 0 l0 -9.0932 l-6.7946 0 l0 -2.3477 z M676.2897999999999 20.02461 l-2.3246 0 l0 -11.295 l2.3246 0 l0 11.295 z M694.9659999999999 11.0046 c-0.21816 0.12059 -0.44118 0.32306 -0.44118 0.90966 c0 0.45724 0.14779 0.70718 0.52734 0.89108 c0.38386 0.18598 0.81196 0.19957 0.83354 0.2001 l8.5334 0.03336 c1.4828 0 3.6956 0.9158 3.6956 3.4388 s-2.0564 3.4388 -3.4388 3.4388 l-12.499 0 l0 -2.3477 l12.488 0 c0.1024 -0.0035352 0.40818 -0.04211 0.66022 -0.18152 c0.21828 -0.12072 0.44128 -0.32318 0.44128 -0.90964 c0 -0.45724 -0.14779 -0.70718 -0.52734 -0.89108 c-0.3827 -0.18547 -0.81038 -0.19947 -0.8343 -0.20012 l-8.5278 -0.03793 l0 0.0045703 c-1.4875 0 -3.7004 -0.9158 -3.7004 -3.4388 s2.0564 -3.4388 3.4388 -3.4388 l12.499 0 l0 2.3477 l-12.488 0 c-0.10229 0.0035352 -0.40834 0.04211 -0.6605 0.18152 z M739.9269999999999 10.9512 l-13.59 0.000019531 l0 2.1863 l9.0642 0.03375 l-0.0086328 2.3478 l-9.0556 -0.03375 l0 2.1782 l13.59 0 l0 2.3477 l-15.938 0 l0 -11.407 l15.938 0 l0 2.3476 z M758.149 19.59116 l-2.3478 0.000019531 l0 -2.375 l2.3477 0 l0 2.375 z"/></g>
			</g>
		</svg>
	